<svg version="1.0" preserveAspectRatio="xMidYMid meet" height="300" viewBox="0 0 600 225" zoomAndPan="magnify" width="800" xmlns:xlink="http://www.w3.org/1999/xlink" xmlns="http://www.w3.org/2000/svg"><defs><g></g></defs><g fill-opacity="1" fill="#000000"><g transform="translate(52.605466, 150.000004)"><g><path d="M 0 0 L 0 -1 C 2.394531 -1 4.328125 -1.734375 5.796875 -3.203125 C 7.265625 -4.671875 8 -6.601562 8 -9 L 8 -66 C 8 -68.394531 7.265625 -70.328125 5.796875 -71.796875 C 4.328125 -73.265625 2.394531 -74 0 -74 L 0 -75 L 33.40625 -75 C 38.195312 -75 42.375 -74.179688 45.9375 -72.546875 C 49.507812 -70.910156 52.28125 -68.644531 54.25 -65.75 C 56.21875 -62.851562 57.203125 -59.46875 57.203125 -55.59375 C 57.203125 -50.726562 55.703125 -46.5625 52.703125 -43.09375 C 49.703125 -39.632812 45.632812 -37.535156 40.5 -36.796875 C 41.632812 -36.460938 42.984375 -35.460938 44.546875 -33.796875 C 46.117188 -32.128906 47.632812 -30.0625 49.09375 -27.59375 L 61.703125 -6 C 62.628906 -4.46875 63.742188 -3.25 65.046875 -2.34375 C 66.347656 -1.445312 67.800781 -1 69.40625 -1 L 69.40625 0 L 48.703125 0 C 47.765625 -1.53125 46.78125 -3.195312 45.75 -5 C 44.71875 -6.800781 43.769531 -8.46875 42.90625 -10 L 33.09375 -28 C 31.894531 -30.195312 30.878906 -31.910156 30.046875 -33.140625 C 29.210938 -34.378906 28.378906 -35.234375 27.546875 -35.703125 C 26.710938 -36.171875 25.664062 -36.40625 24.40625 -36.40625 L 23.40625 -36.40625 L 23.40625 -9 C 23.40625 -6.601562 24.132812 -4.671875 25.59375 -3.203125 C 27.0625 -1.734375 29 -1 31.40625 -1 L 31.59375 -1 L 31.59375 0 Z M 23.40625 -37.703125 L 28.5 -37.703125 C 32.832031 -37.703125 36.28125 -39.367188 38.84375 -42.703125 C 41.414062 -46.035156 42.703125 -50.367188 42.703125 -55.703125 C 42.703125 -61.097656 41.46875 -65.445312 39 -68.75 C 36.53125 -72.050781 33.265625 -73.703125 29.203125 -73.703125 L 23.40625 -73.703125 Z M 23.40625 -37.703125"></path></g></g></g><g fill-opacity="1" fill="#000000"><g transform="translate(113.703032, 150.000004)"><g><path d="M 43.90625 1.40625 C 35.90625 1.40625 28.882812 -0.207031 22.84375 -3.4375 C 16.8125 -6.675781 12.113281 -11.210938 8.75 -17.046875 C 5.382812 -22.878906 3.703125 -29.695312 3.703125 -37.5 C 3.703125 -45.300781 5.382812 -52.117188 8.75 -57.953125 C 12.113281 -63.785156 16.8125 -68.316406 22.84375 -71.546875 C 28.882812 -74.785156 35.90625 -76.40625 43.90625 -76.40625 C 51.90625 -76.40625 58.921875 -74.785156 64.953125 -71.546875 C 70.984375 -68.316406 75.679688 -63.785156 79.046875 -57.953125 C 82.410156 -52.117188 84.09375 -45.300781 84.09375 -37.5 C 84.09375 -29.695312 82.410156 -22.878906 79.046875 -17.046875 C 75.679688 -11.210938 70.984375 -6.675781 64.953125 -3.4375 C 58.921875 -0.207031 51.90625 1.40625 43.90625 1.40625 Z M 43.90625 -0.203125 C 47.363281 -0.203125 50.523438 -1.097656 53.390625 -2.890625 C 56.265625 -4.691406 58.734375 -7.226562 60.796875 -10.5 C 62.796875 -13.769531 64.34375 -17.703125 65.4375 -22.296875 C 66.539062 -26.898438 67.09375 -32 67.09375 -37.59375 C 67.09375 -43.195312 66.539062 -48.316406 65.4375 -52.953125 C 64.34375 -57.585938 62.796875 -61.535156 60.796875 -64.796875 C 58.734375 -68.066406 56.265625 -70.597656 53.390625 -72.390625 C 50.523438 -74.191406 47.363281 -75.09375 43.90625 -75.09375 C 40.4375 -75.09375 37.265625 -74.191406 34.390625 -72.390625 C 31.523438 -70.597656 29.09375 -68.066406 27.09375 -64.796875 C 25.03125 -61.535156 23.445312 -57.585938 22.34375 -52.953125 C 21.25 -48.316406 20.703125 -43.195312 20.703125 -37.59375 C 20.703125 -32 21.25 -26.898438 22.34375 -22.296875 C 23.445312 -17.703125 25.03125 -13.769531 27.09375 -10.5 C 29.09375 -7.226562 31.523438 -4.691406 34.390625 -2.890625 C 37.265625 -1.097656 40.4375 -0.203125 43.90625 -0.203125 Z M 43.90625 -0.203125"></path></g></g></g><g fill-opacity="1" fill="#000000"><g transform="translate(198.499732, 150.000004)"><g><path d="M 41.09375 1.40625 L 13.09375 -62.796875 L 8.40625 -10.203125 C 8.132812 -7.535156 8.898438 -5.367188 10.703125 -3.703125 C 12.503906 -2.035156 14.703125 -1.132812 17.296875 -1 L 17.296875 0 L -2.703125 0 L -2.703125 -1 C -0.171875 -1.132812 1.957031 -2.066406 3.6875 -3.796875 C 5.425781 -5.535156 6.429688 -7.703125 6.703125 -10.296875 L 11.703125 -65.59375 C 10.429688 -68.195312 8.84375 -70.25 6.9375 -71.75 C 5.039062 -73.25 2.59375 -74 -0.40625 -74 L -0.40625 -75 L 23.59375 -75 L 48 -18.5 L 72.40625 -75 L 91.09375 -75 L 91.09375 -74 C 88.96875 -74 87.171875 -73.363281 85.703125 -72.09375 C 84.234375 -70.832031 83.566406 -69.101562 83.703125 -66.90625 L 88.796875 -7.703125 C 89.128906 -5.429688 90.210938 -3.726562 92.046875 -2.59375 C 93.878906 -1.46875 95.695312 -0.90625 97.5 -0.90625 L 97.5 0 L 66.5 0 L 66.5 -0.90625 C 67.632812 -0.90625 68.800781 -1.171875 70 -1.703125 C 71.195312 -2.234375 72.175781 -3 72.9375 -4 C 73.707031 -5 73.992188 -6.164062 73.796875 -7.5 L 68.90625 -62.703125 Z M 41.09375 1.40625"></path></g></g></g><g fill-opacity="1" fill="#000000"><g transform="translate(293.496081, 150.000004)"><g><path d="M 0.796875 0 L 0.90625 -1 L 1 -1 C 3.394531 -1 5.328125 -1.628906 6.796875 -2.890625 C 8.265625 -4.160156 9 -6 9 -8.40625 L 9 -66 C 9 -68.394531 8.265625 -70.328125 6.796875 -71.796875 C 5.328125 -73.265625 3.394531 -74 1 -74 L 0.90625 -75 L 54.5 -75 L 57.5 -54.90625 L 56.5 -54.90625 C 54.5 -67.4375 46.597656 -73.703125 32.796875 -73.703125 L 24.40625 -73.703125 L 24.40625 -44.796875 L 33.40625 -44.796875 C 36.738281 -44.796875 39.40625 -45.8125 41.40625 -47.84375 C 43.40625 -49.882812 44.40625 -52.570312 44.40625 -55.90625 L 45.40625 -55.90625 L 45.40625 -31.296875 L 44.40625 -31.296875 C 44.332031 -34.898438 43.195312 -37.832031 41 -40.09375 C 38.800781 -42.363281 35.898438 -43.5 32.296875 -43.5 L 24.40625 -43.5 L 24.40625 -8.40625 C 24.40625 -3.664062 26.738281 -1.296875 31.40625 -1.296875 L 35.59375 -1.296875 C 42.0625 -1.296875 47.195312 -2.960938 51 -6.296875 C 54.800781 -9.628906 57.234375 -14.863281 58.296875 -22 L 59.296875 -22 L 56.296875 0 Z M 0.796875 0"></path></g></g></g><g fill-opacity="1" fill="#000000"><g transform="translate(354.093734, 150.000004)"><g><path d="M 0 0 L 0 -1 C 2.394531 -1 4.328125 -1.734375 5.796875 -3.203125 C 7.265625 -4.671875 8 -6.601562 8 -9 L 8 -66 C 8 -68.394531 7.265625 -70.328125 5.796875 -71.796875 C 4.328125 -73.265625 2.394531 -74 0 -74 L 0 -75 L 33.40625 -75 C 38.195312 -75 42.375 -74.179688 45.9375 -72.546875 C 49.507812 -70.910156 52.28125 -68.644531 54.25 -65.75 C 56.21875 -62.851562 57.203125 -59.46875 57.203125 -55.59375 C 57.203125 -50.726562 55.703125 -46.5625 52.703125 -43.09375 C 49.703125 -39.632812 45.632812 -37.535156 40.5 -36.796875 C 41.632812 -36.460938 42.984375 -35.460938 44.546875 -33.796875 C 46.117188 -32.128906 47.632812 -30.0625 49.09375 -27.59375 L 61.703125 -6 C 62.628906 -4.46875 63.742188 -3.25 65.046875 -2.34375 C 66.347656 -1.445312 67.800781 -1 69.40625 -1 L 69.40625 0 L 48.703125 0 C 47.765625 -1.53125 46.78125 -3.195312 45.75 -5 C 44.71875 -6.800781 43.769531 -8.46875 42.90625 -10 L 33.09375 -28 C 31.894531 -30.195312 30.878906 -31.910156 30.046875 -33.140625 C 29.210938 -34.378906 28.378906 -35.234375 27.546875 -35.703125 C 26.710938 -36.171875 25.664062 -36.40625 24.40625 -36.40625 L 23.40625 -36.40625 L 23.40625 -9 C 23.40625 -6.601562 24.132812 -4.671875 25.59375 -3.203125 C 27.0625 -1.734375 29 -1 31.40625 -1 L 31.59375 -1 L 31.59375 0 Z M 23.40625 -37.703125 L 28.5 -37.703125 C 32.832031 -37.703125 36.28125 -39.367188 38.84375 -42.703125 C 41.414062 -46.035156 42.703125 -50.367188 42.703125 -55.703125 C 42.703125 -61.097656 41.46875 -65.445312 39 -68.75 C 36.53125 -72.050781 33.265625 -73.703125 29.203125 -73.703125 L 23.40625 -73.703125 Z M 23.40625 -37.703125"></path></g></g></g><g fill-opacity="1" fill="#000000"><g transform="translate(417.391232, 150.000004)"><g><path d="M 18.796875 0 L 18.90625 -1 L 19 -1 C 21.394531 -1 23.328125 -1.734375 24.796875 -3.203125 C 26.265625 -4.671875 27 -6.601562 27 -9 L 27 -73.59375 L 24.09375 -73.59375 C 20.832031 -73.59375 17.632812 -73.078125 14.5 -72.046875 C 11.363281 -71.015625 8.660156 -69.148438 6.390625 -66.453125 C 4.128906 -63.753906 2.597656 -59.867188 1.796875 -54.796875 L 0.796875 -54.796875 L 3.59375 -75 L 65.90625 -75 L 68.796875 -54.796875 L 67.796875 -54.796875 C 66.992188 -59.796875 65.441406 -63.660156 63.140625 -66.390625 C 60.847656 -69.128906 58.117188 -71.015625 54.953125 -72.046875 C 51.785156 -73.078125 48.5 -73.59375 45.09375 -73.59375 L 42.5 -73.59375 L 42.5 -9 C 42.5 -6.601562 43.234375 -4.671875 44.703125 -3.203125 C 46.171875 -1.734375 48.101562 -1 50.5 -1 L 50.59375 0 Z M 18.796875 0"></path></g></g></g><g fill-opacity="1" fill="#000000"><g transform="translate(486.788568, 150.000004)"><g><path d="M 0.796875 0 L 0.90625 -1 L 1 -1 C 3.394531 -1 5.328125 -1.628906 6.796875 -2.890625 C 8.265625 -4.160156 9 -6 9 -8.40625 L 9 -66 C 9 -68.394531 8.265625 -70.328125 6.796875 -71.796875 C 5.328125 -73.265625 3.394531 -74 1 -74 L 0.90625 -75 L 54.5 -75 L 57.5 -54.90625 L 56.5 -54.90625 C 54.5 -67.4375 46.597656 -73.703125 32.796875 -73.703125 L 24.40625 -73.703125 L 24.40625 -44.796875 L 33.40625 -44.796875 C 36.738281 -44.796875 39.40625 -45.8125 41.40625 -47.84375 C 43.40625 -49.882812 44.40625 -52.570312 44.40625 -55.90625 L 45.40625 -55.90625 L 45.40625 -31.296875 L 44.40625 -31.296875 C 44.332031 -34.898438 43.195312 -37.832031 41 -40.09375 C 38.800781 -42.363281 35.898438 -43.5 32.296875 -43.5 L 24.40625 -43.5 L 24.40625 -8.40625 C 24.40625 -3.664062 26.738281 -1.296875 31.40625 -1.296875 L 35.59375 -1.296875 C 42.0625 -1.296875 47.195312 -2.960938 51 -6.296875 C 54.800781 -9.628906 57.234375 -14.863281 58.296875 -22 L 59.296875 -22 L 56.296875 0 Z M 0.796875 0"></path></g></g></g><g fill-opacity="1" fill="#000000"><g transform="translate(551.279809, 112.143608)"><g><path d="M 10.34375 -18.59375 C 8.382812 -18.59375 6.675781 -19 5.21875 -19.8125 C 3.769531 -20.632812 2.644531 -21.769531 1.84375 -23.21875 C 1.050781 -24.675781 0.65625 -26.351562 0.65625 -28.25 C 0.65625 -30.21875 1.0625 -31.925781 1.875 -33.375 C 2.6875 -34.820312 3.816406 -35.953125 5.265625 -36.765625 C 6.722656 -37.585938 8.414062 -38 10.34375 -38 C 12.28125 -38 13.972656 -37.585938 15.421875 -36.765625 C 16.867188 -35.953125 18 -34.820312 18.8125 -33.375 C 19.632812 -31.925781 20.046875 -30.21875 20.046875 -28.25 C 20.046875 -26.351562 19.644531 -24.675781 18.84375 -23.21875 C 18.050781 -21.769531 16.925781 -20.632812 15.46875 -19.8125 C 14.019531 -19 12.3125 -18.59375 10.34375 -18.59375 Z M 10.34375 -19.453125 C 13.007812 -19.453125 15.125 -20.242188 16.6875 -21.828125 C 18.257812 -23.410156 19.046875 -25.550781 19.046875 -28.25 C 19.046875 -31.019531 18.253906 -33.195312 16.671875 -34.78125 C 15.085938 -36.363281 12.976562 -37.15625 10.34375 -37.15625 C 7.71875 -37.15625 5.613281 -36.363281 4.03125 -34.78125 C 2.445312 -33.195312 1.65625 -31.019531 1.65625 -28.25 C 1.65625 -25.550781 2.4375 -23.410156 4 -21.828125 C 5.5625 -20.242188 7.675781 -19.453125 10.34375 -19.453125 Z M 5.5 -22.5 L 5.5 -22.84375 C 6.300781 -22.84375 6.703125 -23.195312 6.703125 -23.90625 L 6.703125 -32.59375 C 6.703125 -33.394531 6.300781 -33.796875 5.5 -33.796875 L 5.5 -34.15625 L 10.5 -34.15625 C 11.5625 -34.15625 12.414062 -33.878906 13.0625 -33.328125 C 13.71875 -32.773438 14.046875 -32.03125 14.046875 -31.09375 C 14.046875 -30.332031 13.820312 -29.679688 13.375 -29.140625 C 12.925781 -28.609375 12.316406 -28.296875 11.546875 -28.203125 C 11.984375 -28.066406 12.414062 -27.582031 12.84375 -26.75 L 14.453125 -23.953125 C 14.921875 -23.210938 15.40625 -22.84375 15.90625 -22.84375 L 15.90625 -22.5 L 12.796875 -22.5 C 12.429688 -22.96875 12.148438 -23.484375 11.953125 -24.046875 L 10.453125 -26.84375 C 10.210938 -27.414062 9.992188 -27.785156 9.796875 -27.953125 C 9.660156 -28.085938 9.445312 -28.15625 9.15625 -28.15625 L 9 -28.15625 L 9 -23.90625 C 9 -23.195312 9.414062 -22.84375 10.25 -22.84375 L 10.25 -22.5 Z M 9 -28.453125 L 9.75 -28.453125 C 11.1875 -28.453125 11.90625 -29.351562 11.90625 -31.15625 C 11.90625 -32.019531 11.71875 -32.679688 11.34375 -33.140625 C 10.976562 -33.609375 10.476562 -33.84375 9.84375 -33.84375 L 9 -33.84375 Z M 9 -28.453125"></path></g></g></g></svg>